<?xml version="1.0" encoding="utf-8"?>
<!-- Generator: Adobe Illustrator 24.0.1, SVG Export Plug-In . SVG Version: 6.00 Build 0)  -->
<svg version="1.1" xmlns="http://www.w3.org/2000/svg" xmlns:xlink="http://www.w3.org/1999/xlink" x="0px" y="0px"
	 viewBox="0 0 360 360" style="enable-background:new 0 0 360 360;" xml:space="preserve">
<style type="text/css">
	.st0{fill:#FFFFFF;}
	.st1{fill:none;}
</style>
<g id="Layer_3">
	<circle class="st0" cx="180" cy="180" r="137.5"/>
</g>
<g id="Layer_1">
	<path id="SVGID_x5F_1_x5F_" class="st1" d="M307.1,180c0,70.2-56.9,127.1-127.1,127.1S52.9,250.2,52.9,180S109.8,52.9,180,52.9
		S307.1,109.8,307.1,180z"/>
	<text>	<textPath  xlink:href="#SVGID_x5F_1_x5F_" startOffset="89.4254%">
<tspan  style="font-family:'Termina-Black'; font-size:11.8605px; letter-spacing:7;">JUMP JUMP JUMP JUMP JUMP JUMP JUMP JUMP JUMP JUMP JUMP JUMP JUMP JUMP JUMP JUMP JUMP JUMP JUMP JUMP JUMP JUMP JUMP JUMP JUMP JUMP</tspan>	</textPath>
</text>
	<path id="SVGID_x5F_2_x5F_" class="st1" d="M298.1,180c0,65.2-52.9,118.1-118.1,118.1S61.9,245.2,61.9,180S114.8,61.9,180,61.9
		S298.1,114.8,298.1,180z"/>
	<text>	<textPath  xlink:href="#SVGID_x5F_2_x5F_" startOffset="89.4254%">
<tspan  style="font-family:'Termina-Black'; font-size:11.0203px; letter-spacing:7;">JUMP JUMP JUMP JUMP JUMP JUMP JUMP JUMP JUMP JUMP JUMP JUMP JUMP JUMP JUMP JUMP JUMP JUMP JUMP JUMP JUMP JUMP JUMP JUMP JUMP JUMP</tspan>	</textPath>
</text>
	<path id="SVGID_x5F_3_x5F_" class="st1" d="M290.5,180c0,61-49.5,110.5-110.5,110.5S69.5,241,69.5,180S119,69.5,180,69.5
		S290.5,119,290.5,180z"/>
	<text>	<textPath  xlink:href="#SVGID_x5F_3_x5F_" startOffset="89.4254%">
<tspan  style="font-family:'Termina-Black'; font-size:10.3076px; letter-spacing:7;">JUMP JUMP JUMP JUMP JUMP JUMP JUMP JUMP JUMP JUMP JUMP JUMP JUMP JUMP JUMP JUMP JUMP JUMP JUMP JUMP JUMP JUMP JUMP JUMP JUMP JUMP</tspan>	</textPath>
</text>
	<path id="SVGID_x5F_4_x5F_" class="st1" d="M282.7,180c0,56.7-46,102.7-102.7,102.7S77.3,236.7,77.3,180S123.3,77.3,180,77.3
		S282.7,123.3,282.7,180z"/>
	<text>	<textPath  xlink:href="#SVGID_x5F_4_x5F_" startOffset="89.4254%">
<tspan  style="font-family:'Termina-Black'; font-size:9.5774px; letter-spacing:7;">JUMP JUMP JUMP JUMP JUMP JUMP JUMP JUMP JUMP JUMP JUMP JUMP JUMP JUMP JUMP JUMP JUMP JUMP JUMP JUMP JUMP JUMP JUMP JUMP JUMP JUMP</tspan>	</textPath>
</text>
	<path id="SVGID_x5F_5_x5F_" class="st1" d="M275.3,180c0,52.6-42.7,95.3-95.3,95.3S84.7,232.6,84.7,180s42.7-95.3,95.3-95.3
		S275.3,127.4,275.3,180z"/>
	<text>	<textPath  xlink:href="#SVGID_x5F_5_x5F_" startOffset="89.4254%">
<tspan  style="font-family:'Termina-Black'; font-size:8.8922px; letter-spacing:7;">JUMP JUMP JUMP JUMP JUMP JUMP JUMP JUMP JUMP JUMP JUMP JUMP JUMP JUMP JUMP JUMP JUMP JUMP JUMP JUMP JUMP JUMP JUMP JUMP JUMP JUMP</tspan>	</textPath>
</text>
	<path id="SVGID_x5F_6_x5F_" class="st1" d="M269.2,180c0,49.2-39.9,89.2-89.2,89.2S90.8,229.2,90.8,180s39.9-89.2,89.2-89.2
		S269.2,130.8,269.2,180z"/>
	<text>	<textPath  xlink:href="#SVGID_x5F_6_x5F_" startOffset="89.4254%">
<tspan  style="font-family:'Termina-Black'; font-size:8.3171px; letter-spacing:7;">JUMP JUMP JUMP JUMP JUMP JUMP JUMP JUMP JUMP JUMP JUMP JUMP JUMP JUMP JUMP JUMP JUMP JUMP JUMP JUMP JUMP JUMP JUMP JUMP JUMP JUMP</tspan>	</textPath>
</text>
	<path id="SVGID_x5F_7_x5F_" class="st1" d="M262.8,180c0,45.8-37.1,82.8-82.8,82.8S97.2,225.8,97.2,180s37.1-82.8,82.8-82.8
		S262.8,134.2,262.8,180z"/>
	<text>	<textPath  xlink:href="#SVGID_x5F_7_x5F_" startOffset="89.4254%">
<tspan  style="font-family:'Termina-Black'; font-size:7.728px; letter-spacing:7;">JUMP JUMP JUMP JUMP JUMP JUMP JUMP JUMP JUMP JUMP JUMP JUMP JUMP JUMP JUMP JUMP JUMP JUMP JUMP JUMP JUMP JUMP JUMP JUMP JUMP JUMP</tspan>	</textPath>
</text>
	<path id="SVGID_x5F_8_x5F_" class="st1" d="M257,180c0,42.5-34.5,77-77,77s-77-34.5-77-77s34.5-77,77-77S257,137.5,257,180z"/>
	<text>	<textPath  xlink:href="#SVGID_x5F_8_x5F_" startOffset="89.4254%">
<tspan  style="font-family:'Termina-Black'; font-size:7.1852px; letter-spacing:7;">JUMP JUMP JUMP JUMP JUMP JUMP JUMP JUMP JUMP JUMP JUMP JUMP JUMP JUMP JUMP JUMP JUMP JUMP JUMP JUMP JUMP JUMP JUMP JUMP JUMP JUMP</tspan>	</textPath>
</text>
	<path id="SVGID_x5F_9_x5F_" class="st1" d="M251.6,180c0,39.5-32,71.6-71.6,71.6s-71.6-32-71.6-71.6s32-71.6,71.6-71.6
		S251.6,140.5,251.6,180z"/>
	<text>	<textPath  xlink:href="#SVGID_x5F_9_x5F_" startOffset="89.4254%">
<tspan  style="font-family:'Termina-Black'; font-size:6.6762px; letter-spacing:7;">JUMP JUMP JUMP JUMP JUMP JUMP JUMP JUMP JUMP JUMP JUMP JUMP JUMP JUMP JUMP JUMP JUMP JUMP JUMP JUMP JUMP JUMP JUMP JUMP JUMP JUMP</tspan>	</textPath>
</text>
	<path id="SVGID_x5F_10_x5F_" class="st1" d="M251.5,180c0,39.5-32,71.5-71.5,71.5s-71.5-32-71.5-71.5s32-71.5,71.5-71.5
		S251.5,140.5,251.5,180z"/>
	<text>	<textPath  xlink:href="#SVGID_x5F_10_x5F_" startOffset="89.4254%">
<tspan  style="font-family:'Termina-Black'; font-size:6.671px; letter-spacing:7;">JUMP JUMP JUMP JUMP JUMP JUMP JUMP JUMP JUMP JUMP JUMP JUMP JUMP JUMP JUMP JUMP JUMP JUMP JUMP JUMP JUMP JUMP JUMP JUMP JUMP JUMP</tspan>	</textPath>
</text>
	<path id="SVGID_x5F_11_x5F_" class="st1" d="M246.4,180c0,36.7-29.7,66.4-66.4,66.4s-66.4-29.7-66.4-66.4s29.7-66.4,66.4-66.4
		S246.4,143.3,246.4,180z"/>
	<text>	<textPath  xlink:href="#SVGID_x5F_11_x5F_" startOffset="89.4254%">
<tspan  style="font-family:'Termina-Black'; font-size:6.1985px; letter-spacing:7;">JUMP JUMP JUMP JUMP JUMP JUMP JUMP JUMP JUMP JUMP JUMP JUMP JUMP JUMP JUMP JUMP JUMP JUMP JUMP JUMP JUMP JUMP JUMP JUMP JUMP JUMP</tspan>	</textPath>
</text>
	<path id="SVGID_x5F_12_x5F_" class="st1" d="M242.1,180c0,34.3-27.8,62.1-62.1,62.1s-62.1-27.8-62.1-62.1s27.8-62.1,62.1-62.1
		S242.1,145.7,242.1,180z"/>
	<text>	<textPath  xlink:href="#SVGID_x5F_12_x5F_" startOffset="89.4254%">
<tspan  style="font-family:'Termina-Black'; font-size:5.7976px; letter-spacing:7;">JUMP JUMP JUMP JUMP JUMP JUMP JUMP JUMP JUMP JUMP JUMP JUMP JUMP JUMP JUMP JUMP JUMP JUMP JUMP JUMP JUMP JUMP JUMP JUMP JUMP JUMP</tspan>	</textPath>
</text>
	<path id="SVGID_x5F_13_x5F_" class="st1" d="M237.7,180c0,31.9-25.9,57.7-57.7,57.7s-57.7-25.9-57.7-57.7s25.9-57.7,57.7-57.7
		S237.7,148.1,237.7,180z"/>
	<text>	<textPath  xlink:href="#SVGID_x5F_13_x5F_" startOffset="89.4254%">
<tspan  style="font-family:'Termina-Black'; font-size:5.3869px; letter-spacing:7;">JUMP JUMP JUMP JUMP JUMP JUMP JUMP JUMP JUMP JUMP JUMP JUMP JUMP JUMP JUMP JUMP JUMP JUMP JUMP JUMP JUMP JUMP JUMP JUMP JUMP JUMP</tspan>	</textPath>
</text>
	<path id="SVGID_x5F_14_x5F_" class="st1" d="M233.3,180c0,29.4-23.9,53.3-53.3,53.3s-53.3-23.9-53.3-53.3s23.9-53.3,53.3-53.3
		S233.3,150.6,233.3,180z"/>
	<text>	<textPath  xlink:href="#SVGID_x5F_14_x5F_" startOffset="89.4254%">
<tspan  style="font-family:'Termina-Black'; font-size:4.9727px; letter-spacing:7;">JUMP JUMP JUMP JUMP JUMP JUMP JUMP JUMP JUMP JUMP JUMP JUMP JUMP JUMP JUMP JUMP JUMP JUMP JUMP JUMP JUMP JUMP JUMP JUMP JUMP JUMP</tspan>	</textPath>
</text>
	<path id="SVGID_x5F_15_x5F_" class="st1" d="M229.5,180c0,27.4-22.2,49.5-49.5,49.5s-49.5-22.2-49.5-49.5s22.2-49.5,49.5-49.5
		S229.5,152.6,229.5,180z"/>
	<text>	<textPath  xlink:href="#SVGID_x5F_15_x5F_" startOffset="89.4254%">
<tspan  style="font-family:'Termina-Black'; font-size:4.6204px; letter-spacing:7;">JUMP JUMP JUMP JUMP JUMP JUMP JUMP JUMP JUMP JUMP JUMP JUMP JUMP JUMP JUMP JUMP JUMP JUMP JUMP JUMP JUMP JUMP JUMP JUMP JUMP JUMP</tspan>	</textPath>
</text>
	<path id="SVGID_x5F_16_x5F_" class="st1" d="M226.3,180c0,25.6-20.7,46.3-46.3,46.3s-46.3-20.7-46.3-46.3s20.7-46.3,46.3-46.3
		S226.3,154.4,226.3,180z"/>
	<text>	<textPath  xlink:href="#SVGID_x5F_16_x5F_" startOffset="89.4254%">
<tspan  style="font-family:'Termina-Black'; font-size:4.3216px; letter-spacing:7;">JUMP JUMP JUMP JUMP JUMP JUMP JUMP JUMP JUMP JUMP JUMP JUMP JUMP JUMP JUMP JUMP JUMP JUMP JUMP JUMP JUMP JUMP JUMP JUMP JUMP JUMP</tspan>	</textPath>
</text>
	<path id="SVGID_x5F_17_x5F_" class="st1" d="M223,180c0,23.8-19.3,43-43,43s-43-19.3-43-43s19.3-43,43-43S223,156.2,223,180z"/>
	<text>	<textPath  xlink:href="#SVGID_x5F_17_x5F_" startOffset="89.4254%">
<tspan  style="font-family:'Termina-Black'; font-size:4.0155px; letter-spacing:7;">JUMP JUMP JUMP JUMP JUMP JUMP JUMP JUMP JUMP JUMP JUMP JUMP JUMP JUMP JUMP JUMP JUMP JUMP JUMP JUMP JUMP JUMP JUMP JUMP JUMP JUMP</tspan>	</textPath>
</text>
	<path id="SVGID_x5F_18_x5F_" class="st1" d="M220,180c0,22.1-17.9,40-40,40s-40-17.9-40-40s17.9-40,40-40S220,157.9,220,180z"/>
	<text>	<textPath  xlink:href="#SVGID_x5F_18_x5F_" startOffset="89.4254%">
<tspan  style="font-family:'Termina-Black'; font-size:3.7282px; letter-spacing:7;">JUMP JUMP JUMP JUMP JUMP JUMP JUMP JUMP JUMP JUMP JUMP JUMP JUMP JUMP JUMP JUMP JUMP JUMP JUMP JUMP JUMP JUMP JUMP JUMP JUMP JUMP</tspan>	</textPath>
</text>
	<path id="SVGID_x5F_19_x5F_" class="st1" d="M217.4,180c0,20.6-16.7,37.4-37.4,37.4s-37.4-16.7-37.4-37.4s16.7-37.4,37.4-37.4
		S217.4,159.4,217.4,180z"/>
	<text>	<textPath  xlink:href="#SVGID_x5F_19_x5F_" startOffset="89.4254%">
<tspan  style="font-family:'Termina-Black'; font-size:3.4871px; letter-spacing:7;">JUMP JUMP JUMP JUMP JUMP JUMP JUMP JUMP JUMP JUMP JUMP JUMP JUMP JUMP JUMP JUMP JUMP JUMP JUMP JUMP JUMP JUMP JUMP JUMP JUMP JUMP</tspan>	</textPath>
</text>
	<path id="SVGID_x5F_20_x5F_" class="st1" d="M214.7,180c0,19.2-15.5,34.7-34.7,34.7s-34.7-15.5-34.7-34.7s15.5-34.7,34.7-34.7
		S214.7,160.8,214.7,180z"/>
	<text>	<textPath  xlink:href="#SVGID_x5F_20_x5F_" startOffset="89.4254%">
<tspan  style="font-family:'Termina-Black'; font-size:3.2401px; letter-spacing:7;">JUMP JUMP JUMP JUMP JUMP JUMP JUMP JUMP JUMP JUMP JUMP JUMP JUMP JUMP JUMP JUMP JUMP JUMP JUMP JUMP JUMP JUMP JUMP JUMP JUMP JUMP</tspan>	</textPath>
</text>
	<path id="SVGID_x5F_21_x5F_" class="st1" d="M212.3,180c0,17.8-14.5,32.3-32.3,32.3s-32.3-14.5-32.3-32.3s14.5-32.3,32.3-32.3
		S212.3,162.2,212.3,180z"/>
	<text>	<textPath  xlink:href="#SVGID_x5F_21_x5F_" startOffset="89.4254%">
<tspan  style="font-family:'Termina-Black'; font-size:3.0125px; letter-spacing:7;">JUMP JUMP JUMP JUMP JUMP JUMP JUMP JUMP JUMP JUMP JUMP JUMP JUMP JUMP JUMP JUMP JUMP JUMP JUMP JUMP JUMP JUMP JUMP JUMP JUMP JUMP</tspan>	</textPath>
</text>
	<path id="SVGID_x5F_22_x5F_" class="st1" d="M210,180c0,16.6-13.4,30-30,30s-30-13.4-30-30s13.4-30,30-30S210,163.4,210,180z"/>
	<text>	<textPath  xlink:href="#SVGID_x5F_22_x5F_" startOffset="89.4254%">
<tspan  style="font-family:'Termina-Black'; font-size:2.7991px; letter-spacing:7;">JUMP JUMP JUMP JUMP JUMP JUMP JUMP JUMP JUMP JUMP JUMP JUMP JUMP JUMP JUMP JUMP JUMP JUMP JUMP JUMP JUMP JUMP JUMP JUMP JUMP JUMP</tspan>	</textPath>
</text>
	<path id="SVGID_x5F_23_x5F_" class="st1" d="M210,180c0,16.6-13.4,30-30,30s-30-13.4-30-30s13.4-30,30-30S210,163.4,210,180z"/>
	<text>	<textPath  xlink:href="#SVGID_x5F_23_x5F_" startOffset="89.4254%">
<tspan  style="font-family:'Termina-Black'; font-size:2.7969px; letter-spacing:7;">JUMP JUMP JUMP JUMP JUMP JUMP JUMP JUMP JUMP JUMP JUMP JUMP JUMP JUMP JUMP JUMP JUMP JUMP JUMP JUMP JUMP JUMP JUMP JUMP JUMP JUMP</tspan>	</textPath>
</text>
	<path id="SVGID_x5F_24_x5F_" class="st1" d="M207.9,180c0,15.4-12.5,27.9-27.9,27.9s-27.9-12.5-27.9-27.9s12.5-27.9,27.9-27.9
		S207.9,164.6,207.9,180z"/>
	<text>	<textPath  xlink:href="#SVGID_x5F_24_x5F_" startOffset="89.4254%">
<tspan  style="font-family:'Termina-Black'; font-size:2.5988px; letter-spacing:7;">JUMP JUMP JUMP JUMP JUMP JUMP JUMP JUMP JUMP JUMP JUMP JUMP JUMP JUMP JUMP JUMP JUMP JUMP JUMP JUMP JUMP JUMP JUMP JUMP JUMP JUMP</tspan>	</textPath>
</text>
	<path id="SVGID_x5F_25_x5F_" class="st1" d="M206.1,180c0,14.4-11.7,26.1-26.1,26.1s-26.1-11.7-26.1-26.1s11.7-26.1,26.1-26.1
		S206.1,165.6,206.1,180z"/>
	<text>	<textPath  xlink:href="#SVGID_x5F_25_x5F_" startOffset="89.4254%">
<tspan  style="font-family:'Termina-Black'; font-size:2.4308px; letter-spacing:7;">JUMP JUMP JUMP JUMP JUMP JUMP JUMP JUMP JUMP JUMP JUMP JUMP JUMP JUMP JUMP JUMP JUMP JUMP JUMP JUMP JUMP JUMP JUMP JUMP JUMP JUMP</tspan>	</textPath>
</text>
	<path id="SVGID_x5F_26_x5F_" class="st1" d="M204.2,180c0,13.4-10.8,24.2-24.2,24.2s-24.2-10.8-24.2-24.2s10.8-24.2,24.2-24.2
		S204.2,166.6,204.2,180z"/>
	<text>	<textPath  xlink:href="#SVGID_x5F_26_x5F_" startOffset="89.4254%">
<tspan  style="font-family:'Termina-Black'; font-size:2.2586px; letter-spacing:7;">JUMP JUMP JUMP JUMP JUMP JUMP JUMP JUMP JUMP JUMP JUMP JUMP JUMP JUMP JUMP JUMP JUMP JUMP JUMP JUMP JUMP JUMP JUMP JUMP JUMP JUMP</tspan>	</textPath>
</text>
</g>
<g id="Layer_2">
	<circle cx="180" cy="180" r="24"/>
</g>
<g id="Layer_4">
	<text transform="matrix(1 0 0 1 -192.3244 122.2555)" class="st0" style="font-family:'Termina-Black'; font-size:6.8054px;">COURAGE</text>
</g>
</svg>
